<?xml version='1.0' encoding='utf-8'?>
<svg xmlns:xlink="http://www.w3.org/1999/xlink" xmlns="http://www.w3.org/2000/svg" width="300mm" height="300mm" viewBox="0 0 300 300" version="1.1" id="svg8"> <defs id="defs2"> <pattern patternUnits="userSpaceOnUse" width="67.724878" height="67.724878" patternTransform="matrix(0.26458333,0,0,0.26458333,139.61544,136.65133)" id="pattern830"> <path d="M 66.487282,18.721261 39.112545,39.112545 18.721261,66.487282 14.749258,32.584422 1.2376831,1.2376832 32.584422,14.749258 Z" id="path828" style="opacity:1;fill:none;fill-opacity:1;fill-rule:nonzero;stroke:#000000;stroke-width:2.47559047;stroke-linecap:butt;stroke-linejoin:round;stroke-miterlimit:4;stroke-dasharray:none;stroke-dashoffset:0;stroke-opacity:1"/> </pattern> </defs> <metadata id="metadata5"> </metadata> <g id="layer1" transform="translate(0,3)"> <path id="path6614" d="m 149.96397,140.68741 c 1.99592,-1.79977 -0.0801,-3.03825 0,-4.5369 0.0801,1.49865 -1.99592,2.73713 0,4.5369 z" style="fill:none;stroke:#000000;stroke-width:0.26458332px;stroke-linecap:butt;stroke-linejoin:miter;stroke-opacity:1"/> <circle style="opacity:1;fill:none;fill-opacity:1;fill-rule:nonzero;stroke:#000000;stroke-width:1.01409459;stroke-linecap:butt;stroke-linejoin:round;stroke-miterlimit:4;stroke-dasharray:none;stroke-dashoffset:0;stroke-opacity:1" id="path815" cx="150" cy="147" r="94.675995"/> <path id="path6004" d="m 149.96397,146.99985 c 6.46858,-2.6841 0.24265,-8.91582 0,-14.37224 v 0 c -0.24265,5.45642 -6.46858,11.68814 0,14.37224 z" style="fill:none;stroke:#000000;stroke-width:0.26458332px;stroke-linecap:butt;stroke-linejoin:miter;stroke-opacity:1"/> <use x="0" y="0" xlink:href="#path6004" id="use6470" width="100%" height="100%"/> <use x="0" y="0" xlink:href="#path6004" transform="rotate(36,149.96397,146.945)" id="use6472" width="100%" height="100%"/> <use x="0" y="0" xlink:href="#path6004" transform="rotate(72,149.96397,146.945)" id="use6474" width="100%" height="100%"/> <use x="0" y="0" xlink:href="#path6004" transform="rotate(108,149.96397,146.945)" id="use6476" width="100%" height="100%"/> <use x="0" y="0" xlink:href="#path6004" transform="rotate(144,149.96397,146.945)" id="use6478" width="100%" height="100%"/> <use x="0" y="0" xlink:href="#path6004" transform="rotate(180,149.96397,146.945)" id="use6480" width="100%" height="100%"/> <use x="0" y="0" xlink:href="#path6004" transform="rotate(-144,149.96397,146.945)" id="use6482" width="100%" height="100%"/> <use x="0" y="0" xlink:href="#path6004" transform="rotate(-108,149.96397,146.945)" id="use6484" width="100%" height="100%"/> <use x="0" y="0" xlink:href="#path6004" transform="rotate(-72,149.96397,146.945)" id="use6486" width="100%" height="100%"/> <use x="0" y="0" xlink:href="#path6004" transform="rotate(-36,149.96397,146.945)" id="use6488" width="100%" height="100%"/> <path style="fill:none;stroke:#000000;stroke-width:0.26458332px;stroke-linecap:butt;stroke-linejoin:miter;stroke-opacity:1" d="m 149.96397,128.6202 c 0.93858,4.54222 3.80084,9.31904 0,13.28329 -3.80084,-3.96425 -0.93858,-8.74107 0,-13.28329 z" id="path6574"/> <use x="0" y="0" xlink:href="#path6574" id="use6578" width="100%" height="100%" style="stroke:#00ff00;stroke-opacity:1;stroke-width:1;stroke-miterlimit:4;stroke-dasharray:none;fill:#ff0000"/> <use x="0" y="0" xlink:href="#path6574" transform="rotate(36,149.96397,147.00121)" id="use6580" width="100%" height="100%"/> <use x="0" y="0" xlink:href="#path6574" transform="rotate(72,149.96397,147.00121)" id="use6582" width="100%" height="100%"/> <use x="0" y="0" xlink:href="#path6574" transform="rotate(108,149.96397,147.00121)" id="use6584" width="100%" height="100%"/> <use x="0" y="0" xlink:href="#path6574" transform="rotate(144,149.96397,147.00121)" id="use6586" width="100%" height="100%"/> <use x="0" y="0" xlink:href="#path6574" transform="rotate(180,149.96397,147.00121)" id="use6588" width="100%" height="100%"/> <use x="0" y="0" xlink:href="#path6574" transform="rotate(-144,149.96397,147.00121)" id="use6590" width="100%" height="100%"/> <use x="0" y="0" xlink:href="#path6574" transform="rotate(-108,149.96397,147.00121)" id="use6592" width="100%" height="100%"/> <use x="0" y="0" xlink:href="#path6574" transform="rotate(-72,149.96397,147.00121)" id="use6594" width="100%" height="100%"/> <use x="0" y="0" xlink:href="#path6574" transform="rotate(-36,149.96397,147.00121)" id="use6596" width="100%" height="100%" style="stroke:#00ff00;stroke-opacity:1;stroke-width:1;stroke-miterlimit:4;stroke-dasharray:none;fill:#00ff00;fill-opacity:1"/> <path style="fill:none;stroke:#000000;stroke-width:0.26458332px;stroke-linecap:butt;stroke-linejoin:miter;stroke-opacity:1" d="m 147.64921,139.7648 c 1.27338,-2.36673 -1.09843,-2.83388 -1.52762,-4.27199 0.58003,1.38417 -0.95775,3.24936 1.52762,4.27199 z" id="path6616"/> <use x="0" y="0" xlink:href="#path6614" id="use6618" width="100%" height="100%" style="fill:#000000;fill-opacity:1"/> <use x="0" y="0" xlink:href="#path6614" transform="rotate(36,149.96397,147.00023)" id="use6620" width="100%" height="100%"/> <use x="0" y="0" xlink:href="#path6614" transform="rotate(72,149.96397,147.00023)" id="use6622" width="100%" height="100%"/> <use x="0" y="0" xlink:href="#path6614" transform="rotate(108,149.96397,147.00023)" id="use6624" width="100%" height="100%"/> <use x="0" y="0" xlink:href="#path6614" transform="rotate(144,149.96397,147.00023)" id="use6626" width="100%" height="100%"/> <use x="0" y="0" xlink:href="#path6614" transform="rotate(180,149.96397,147.00023)" id="use6628" width="100%" height="100%"/> <use x="0" y="0" xlink:href="#path6614" transform="rotate(-144,149.96397,147.00023)" id="use6630" width="100%" height="100%"/> <use x="0" y="0" xlink:href="#path6614" transform="rotate(-108,149.96397,147.00023)" id="use6632" width="100%" height="100%"/> <use x="0" y="0" xlink:href="#path6614" transform="rotate(-72,149.96397,147.00023)" id="use6634" width="100%" height="100%"/> <use x="0" y="0" xlink:href="#path6614" transform="rotate(-36,149.96397,147.00023)" id="use6636" width="100%" height="100%" style="fill:#000000;fill-opacity:1"/> <use x="0" y="0" xlink:href="#path6616" id="use6638" width="100%" height="100%" style="stroke:#000000;stroke-opacity:1;stroke-width:1;stroke-miterlimit:4;stroke-dasharray:none;fill:#000000;fill-opacity:1"/> <use x="0" y="0" xlink:href="#path6616" transform="rotate(36,149.97387,146.95969)" id="use6640" width="100%" height="100%"/> <use x="0" y="0" xlink:href="#path6616" transform="rotate(72,149.97387,146.95969)" id="use6642" width="100%" height="100%"/> <use x="0" y="0" xlink:href="#path6616" transform="rotate(108,149.97387,146.95969)" id="use6644" width="100%" height="100%"/> <use x="0" y="0" xlink:href="#path6616" transform="rotate(144,149.97387,146.95969)" id="use6646" width="100%" height="100%"/> <use x="0" y="0" xlink:href="#path6616" transform="rotate(180,149.97387,146.95969)" id="use6648" width="100%" height="100%"/> <use x="0" y="0" xlink:href="#path6616" transform="rotate(-144,149.97387,146.95969)" id="use6650" width="100%" height="100%"/> <use x="0" y="0" xlink:href="#path6616" transform="rotate(-108,149.97387,146.95969)" id="use6652" width="100%" height="100%"/> <use x="0" y="0" xlink:href="#path6616" transform="rotate(-72,149.97387,146.95969)" id="use6654" width="100%" height="100%"/> <use x="0" y="0" xlink:href="#path6616" transform="rotate(-36,149.97387,146.95969)" id="use6656" width="100%" height="100%"/> <circle style="opacity:1;fill:none;fill-opacity:1;fill-rule:nonzero;stroke:#000000;stroke-width:0.48782933;stroke-linecap:butt;stroke-linejoin:round;stroke-miterlimit:4;stroke-dasharray:none;stroke-dashoffset:0;stroke-opacity:1" id="path6658" cx="150" cy="147" r="18.503477"/> <g id="g6699" transform="translate(0,-2.7622213)"> <path style="fill:none;stroke:#000000;stroke-width:0.26458332px;stroke-linecap:butt;stroke-linejoin:miter;stroke-opacity:1" d="m 149.96397,134.6953 c 1.38277,0.54559 2.7074,0.65511 3.84238,-0.6577 3.63223,-4.5121 -0.66083,-9.16325 -3.84238,-13.79489 v 0 c -3.18155,4.63164 -7.47461,9.28279 -3.84238,13.79489 1.13498,1.31281 2.45961,1.20329 3.84238,0.6577 z" id="path6684"/> <path id="path6686" d="m 149.96397,134.6953 c 1.47031,-0.21889 2.67223,-0.78635 2.99875,-2.49077 0.88955,-5.72371 -5.15392,-7.60519 -10.22505,-10.02554 v 0 c -0.43948,5.6019 -1.8318,11.77644 3.56985,13.86792 1.63933,0.56944 2.73173,-0.18773 3.65645,-1.35161 z" style="fill:none;stroke:#000000;stroke-width:0.26458332px;stroke-linecap:butt;stroke-linejoin:miter;stroke-opacity:1"/> <path style="fill:none;stroke:#000000;stroke-width:0.26458332px;stroke-linecap:butt;stroke-linejoin:miter;stroke-opacity:1" d="m 149.96397,134.6953 c 0.92472,1.16388 2.01711,1.92104 3.65644,1.35161 5.40166,-2.09149 4.00933,-8.26602 3.56985,-13.86793 v 0 c -5.07113,2.42035 -11.11459,4.30184 -10.22504,10.02554 0.32651,1.70443 1.52844,2.27189 2.99875,2.49078 z" id="path6688"/> <path id="path6690" d="m 149.96397,134.6953 c 0.21889,1.47031 0.78635,2.67223 2.49077,2.99875 5.72372,0.88955 7.60519,-5.15392 10.02554,-10.22505 v 0 c -5.6019,-0.43948 -11.77643,-1.83179 -13.86791,3.56985 -0.56945,1.63933 0.18772,2.73173 1.3516,3.65645 z" style="fill:none;stroke:#000000;stroke-width:0.26458332px;stroke-linecap:butt;stroke-linejoin:miter;stroke-opacity:1"/> <path style="fill:none;stroke:#000000;stroke-width:0.26458332px;stroke-linecap:butt;stroke-linejoin:miter;stroke-opacity:1" d="m 149.96397,134.6953 c 1.16388,-0.92472 1.92105,-2.01711 1.35161,-3.65644 -2.09148,-5.40166 -8.26602,-4.00933 -13.86792,-3.56985 v 0 c 2.42035,5.07113 4.30183,11.1146 10.02554,10.22505 1.70442,-0.32652 2.27188,-1.52845 2.49077,-2.99876 z" id="path6692"/> </g> <use x="0" y="0" xlink:href="#g6699" id="use6701" width="100%" height="100%"/> <use x="0" y="0" xlink:href="#g6699" transform="rotate(36,149.96213,147.00599)" id="use6703" width="100%" height="100%"/> <use x="0" y="0" xlink:href="#g6699" transform="rotate(72,149.96213,147.00599)" id="use6705" width="100%" height="100%"/> <use x="0" y="0" xlink:href="#g6699" transform="rotate(108,149.96213,147.00599)" id="use6707" width="100%" height="100%"/> <use x="0" y="0" xlink:href="#g6699" transform="rotate(144,149.96213,147.00599)" id="use6709" width="100%" height="100%"/> <use x="0" y="0" xlink:href="#g6699" transform="rotate(180,149.96213,147.00599)" id="use6711" width="100%" height="100%"/> <use x="0" y="0" xlink:href="#g6699" transform="rotate(-144,149.96213,147.00599)" id="use6713" width="100%" height="100%"/> <use x="0" y="0" xlink:href="#g6699" transform="rotate(-108,149.96213,147.00599)" id="use6715" width="100%" height="100%"/> <use x="0" y="0" xlink:href="#g6699" transform="rotate(-72,149.96213,147.00599)" id="use6717" width="100%" height="100%"/> <use x="0" y="0" xlink:href="#g6699" transform="rotate(-36,149.96213,147.00599)" id="use6719" width="100%" height="100%"/> <path style="fill:none;stroke:#000000;stroke-width:0.26458332px;stroke-linecap:butt;stroke-linejoin:miter;stroke-opacity:1" d="m 149.96397,122.94842 c -18.52072,-17.19371 9.46748,-20.30597 0,-30.757815 v 0 c -9.46748,10.451845 18.52072,13.564105 0,30.757815 z" id="path6723"/> <use x="0" y="0" xlink:href="#path6723" id="use6727" width="100%" height="100%"/> <use x="0" y="0" xlink:href="#path6723" transform="rotate(36,149.96397,147.00089)" id="use6729" width="100%" height="100%"/> <use x="0" y="0" xlink:href="#path6723" transform="rotate(72,149.96397,147.00089)" id="use6731" width="100%" height="100%"/> <use x="0" y="0" xlink:href="#path6723" transform="rotate(108,149.96397,147.00089)" id="use6733" width="100%" height="100%"/> <use x="0" y="0" xlink:href="#path6723" transform="rotate(144,149.96397,147.00089)" id="use6735" width="100%" height="100%"/> <use x="0" y="0" xlink:href="#path6723" transform="rotate(180,149.96397,147.00089)" id="use6737" width="100%" height="100%"/> <use x="0" y="0" xlink:href="#path6723" transform="rotate(-144,149.96397,147.00089)" id="use6739" width="100%" height="100%"/> <use x="0" y="0" xlink:href="#path6723" transform="rotate(-108,149.96397,147.00089)" id="use6741" width="100%" height="100%"/> <use x="0" y="0" xlink:href="#path6723" transform="rotate(-72,149.96397,147.00089)" id="use6743" width="100%" height="100%"/> <use x="0" y="0" xlink:href="#path6723" transform="rotate(-36,149.96397,147.00089)" id="use6745" width="100%" height="100%"/> <use height="100%" width="100%" id="use6749" xlink:href="#path6723" y="0" x="0"/> <path id="path6753" d="m 149.96397,121.89605 c 3.52925,-6.78724 6.21421,-12.89768 0,-18.88321 v 0 c -6.21421,5.98553 -3.52925,12.09597 0,18.88321 z" style="fill:none;stroke:#000000;stroke-width:0.26458332px;stroke-linecap:butt;stroke-linejoin:miter;stroke-opacity:1"/> <path style="fill:none;stroke:#000000;stroke-width:0.99999994px;stroke-linecap:butt;stroke-linejoin:miter;stroke-opacity:1" d="m 516.41211,395.13867 c -0.71701,4.73251 -1.35531,9.35763 -1.81836,13.86524 -3.16484,-3.33372 -6.5505,-6.65171 -10.06641,-10.00782 -4.33115,28.58707 -6.46985,53.72263 23.06836,67.53907 1.5287,-2.97256 2.70485,-5.83145 3.5918,-8.59766 2.44267,1.69704 5.18202,3.2851 8.29297,4.74023 14.91375,-28.99978 -2.15382,-47.5751 -23.06836,-67.53906 z" transform="matrix(0.26458333,0,0,0.26458333,0,-3)" id="path6755"/> <path style="fill:none;stroke:#000000;stroke-width:0.5;stroke-linecap:butt;stroke-linejoin:miter;stroke-miterlimit:4;stroke-dasharray:none;stroke-opacity:1" d="m 149.96397,116.55445 c 1.86966,-3.59563 3.29205,-6.83271 0,-10.00362 v 0 c -3.29205,3.17091 -1.86966,6.40799 0,10.00362 z" id="path6763"/> <use x="0" y="0" xlink:href="#path6753" id="use6765" width="100%" height="100%"/> <use x="0" y="0" xlink:href="#path6753" transform="rotate(36,149.96397,147.00185)" id="use6767" width="100%" height="100%"/> <use x="0" y="0" xlink:href="#path6753" transform="rotate(72,149.96397,147.00185)" id="use6769" width="100%" height="100%"/> <use x="0" y="0" xlink:href="#path6753" transform="rotate(108,149.96397,147.00185)" id="use6771" width="100%" height="100%"/> <use x="0" y="0" xlink:href="#path6753" transform="rotate(144,149.96397,147.00185)" id="use6773" width="100%" height="100%"/> <use x="0" y="0" xlink:href="#path6753" transform="rotate(180,149.96397,147.00185)" id="use6775" width="100%" height="100%"/> <use x="0" y="0" xlink:href="#path6753" transform="rotate(-144,149.96397,147.00185)" id="use6777" width="100%" height="100%"/> <use x="0" y="0" xlink:href="#path6753" transform="rotate(-108,149.96397,147.00185)" id="use6779" width="100%" height="100%"/> <use x="0" y="0" xlink:href="#path6753" transform="rotate(-72,149.96397,147.00185)" id="use6781" width="100%" height="100%"/> <use x="0" y="0" xlink:href="#path6753" transform="rotate(-36,149.96397,147.00185)" id="use6783" width="100%" height="100%"/> <use x="0" y="0" xlink:href="#path6763" id="use6785" width="100%" height="100%"/> <use x="0" y="0" xlink:href="#path6763" transform="rotate(36,149.96397,147.00047)" id="use6787" width="100%" height="100%"/> <use x="0" y="0" xlink:href="#path6763" transform="rotate(72,149.96397,147.00047)" id="use6789" width="100%" height="100%"/> <use x="0" y="0" xlink:href="#path6763" transform="rotate(108,149.96397,147.00047)" id="use6791" width="100%" height="100%"/> <use x="0" y="0" xlink:href="#path6763" transform="rotate(144,149.96397,147.00047)" id="use6793" width="100%" height="100%"/> <use x="0" y="0" xlink:href="#path6763" transform="rotate(180,149.96397,147.00047)" id="use6795" width="100%" height="100%"/> <use x="0" y="0" xlink:href="#path6763" transform="rotate(-144,149.96397,147.00047)" id="use6797" width="100%" height="100%"/> <use x="0" y="0" xlink:href="#path6763" transform="rotate(-108,149.96397,147.00047)" id="use6799" width="100%" height="100%"/> <use x="0" y="0" xlink:href="#path6763" transform="rotate(-72,149.96397,147.00047)" id="use6801" width="100%" height="100%"/> <use x="0" y="0" xlink:href="#path6763" transform="rotate(-36,149.96397,147.00047)" id="use6803" width="100%" height="100%"/> <use x="0" y="0" xlink:href="#path6755" id="use6806" width="100%" height="100%"/> <use x="0" y="0" xlink:href="#path6755" transform="rotate(36,149.96263,146.99967)" id="use6808" width="100%" height="100%"/> <use x="0" y="0" xlink:href="#path6755" transform="rotate(72,149.96263,146.99967)" id="use6810" width="100%" height="100%"/> <use x="0" y="0" xlink:href="#path6755" transform="rotate(108,149.96263,146.99967)" id="use6812" width="100%" height="100%"/> <use x="0" y="0" xlink:href="#path6755" transform="rotate(144,149.96263,146.99967)" id="use6814" width="100%" height="100%"/> <use x="0" y="0" xlink:href="#path6755" transform="rotate(180,149.96263,146.99967)" id="use6816" width="100%" height="100%"/> <use x="0" y="0" xlink:href="#path6755" transform="rotate(-144,149.96263,146.99967)" id="use6818" width="100%" height="100%"/> <use x="0" y="0" xlink:href="#path6755" transform="rotate(-108,149.96263,146.99967)" id="use6820" width="100%" height="100%"/> <use x="0" y="0" xlink:href="#path6755" transform="rotate(-72,149.96263,146.99967)" id="use6822" width="100%" height="100%"/> <use x="0" y="0" xlink:href="#path6755" transform="rotate(-36,149.96263,146.99967)" id="use6824" width="100%" height="100%"/> <use height="100%" width="100%" id="use6826" xlink:href="#path6763" y="0" x="0" style="fill:none;fill-opacity:1"/> <path id="path6832" d="m 149.96397,103.01284 c 14.18375,-11.818793 0.002,-24.00124 0,-36.001903 v 0 c -0.002,12.000663 -14.18375,24.18311 0,36.001903 z" style="fill:none;stroke:#000000;stroke-width:0.26458332px;stroke-linecap:butt;stroke-linejoin:miter;stroke-opacity:1"/> <g id="g6865"> <path id="path6834" d="M 136.15293,105.21562 C 146.22776,89.744314 129.08757,82.277848 125.55202,70.809816 v 0 c 3.53174,11.46921 -6.43411,27.287431 10.60091,34.405804 z" style="fill:none;stroke:#000000;stroke-width:0.26458332px;stroke-linecap:butt;stroke-linejoin:miter;stroke-opacity:1"/> <path style="fill:none;stroke:#000000;stroke-width:0.26458332px;stroke-linecap:butt;stroke-linejoin:miter;stroke-opacity:1" d="M 143.23053,110.375 C 153.30536,94.903689 136.16517,87.437223 132.62962,75.969191 v 0 c 3.53174,11.46921 -6.43411,27.287429 10.60091,34.405809 z" id="path6836"/> <path id="path6838" d="M 133.30865,113.21927 C 143.38348,97.74796 126.24329,90.281494 122.70774,78.813462 v 0 c 3.53174,11.46921 -6.43411,27.287428 10.60091,34.405808 z" style="fill:none;stroke:#000000;stroke-width:0.26458332px;stroke-linecap:butt;stroke-linejoin:miter;stroke-opacity:1"/> </g> <use x="0" y="0" xlink:href="#path6832" id="use6840" width="100%" height="100%"/> <use x="0" y="0" xlink:href="#path6832" transform="rotate(36,149.96397,146.99737)" id="use6842" width="100%" height="100%"/> <use x="0" y="0" xlink:href="#path6832" transform="rotate(72,149.96397,146.99737)" id="use6844" width="100%" height="100%"/> <use x="0" y="0" xlink:href="#path6832" transform="rotate(108,149.96397,146.99737)" id="use6846" width="100%" height="100%"/> <use x="0" y="0" xlink:href="#path6832" transform="rotate(144,149.96397,146.99737)" id="use6848" width="100%" height="100%"/> <use x="0" y="0" xlink:href="#path6832" transform="rotate(180,149.96397,146.99737)" id="use6850" width="100%" height="100%"/> <use x="0" y="0" xlink:href="#path6832" transform="rotate(-144,149.96397,146.99737)" id="use6852" width="100%" height="100%"/> <use x="0" y="0" xlink:href="#path6832" transform="rotate(-108,149.96397,146.99737)" id="use6854" width="100%" height="100%"/> <use x="0" y="0" xlink:href="#path6832" transform="rotate(-72,149.96397,146.99737)" id="use6856" width="100%" height="100%"/> <use x="0" y="0" xlink:href="#path6832" transform="rotate(-36,149.96397,146.99737)" id="use6858" width="100%" height="100%"/> <circle style="opacity:1;fill:none;fill-opacity:1;fill-rule:nonzero;stroke:#000000;stroke-width:0.80108643;stroke-linecap:butt;stroke-linejoin:round;stroke-miterlimit:4;stroke-dasharray:none;stroke-dashoffset:0;stroke-opacity:1" id="circle6860" cx="150" cy="147" r="30.385391"/> <use x="0" y="0" xlink:href="#g6865" id="use6867" width="100%" height="100%"/> <use x="0" y="0" xlink:href="#g6865" transform="rotate(36,149.95617,147.01128)" id="use6869" width="100%" height="100%"/> <use x="0" y="0" xlink:href="#g6865" transform="rotate(72,149.95617,147.01128)" id="use6871" width="100%" height="100%"/> <use x="0" y="0" xlink:href="#g6865" transform="rotate(108,149.95617,147.01128)" id="use6873" width="100%" height="100%"/> <use x="0" y="0" xlink:href="#g6865" transform="rotate(144,149.95617,147.01128)" id="use6875" width="100%" height="100%"/> <use x="0" y="0" xlink:href="#g6865" transform="rotate(180,149.95617,147.01128)" id="use6877" width="100%" height="100%"/> <use x="0" y="0" xlink:href="#g6865" transform="rotate(-144,149.95617,147.01128)" id="use6879" width="100%" height="100%"/> <use x="0" y="0" xlink:href="#g6865" transform="rotate(-108,149.95617,147.01128)" id="use6881" width="100%" height="100%"/> <use x="0" y="0" xlink:href="#g6865" transform="rotate(-72,149.95617,147.01128)" id="use6883" width="100%" height="100%"/> <use x="0" y="0" xlink:href="#g6865" transform="rotate(-36,149.95617,147.01128)" id="use6885" width="100%" height="100%"/> <g id="g6926"> <path style="fill:#000000;fill-opacity:1;stroke:#000000;stroke-width:0.26458332px;stroke-linecap:butt;stroke-linejoin:miter;stroke-opacity:1" d="m 149.96397,116.55445 c 1.17492,-1.59583 1.11785,-3.10085 0,-4.56434 v 0 c -1.11785,1.46349 -1.17492,2.96851 0,4.56434 z" id="path6889"/> <path id="path6891" d="m 148.30501,116.42717 c 0.72185,-1.84555 0.2772,-3.28452 -1.18134,-4.40882 v 0 c -0.70098,1.70295 -0.36658,3.17145 1.18134,4.40882 z" style="fill:none;stroke:#000000;stroke-width:0.26458332px;stroke-linecap:butt;stroke-linejoin:miter;stroke-opacity:1"/> <path style="fill:none;stroke:#000000;stroke-width:0.26458332px;stroke-linecap:butt;stroke-linejoin:miter;stroke-opacity:1" d="m 151.63873,116.41338 c 1.54791,-1.23737 1.88232,-2.70588 1.18134,-4.40882 v 0 c -1.45854,1.12431 -1.90319,2.56326 -1.18134,4.40882 z" id="path6902"/> <path id="path6904" d="m 149.96397,113.90862 c 1.17492,-1.59583 1.11785,-3.10085 0,-4.56434 v 0 c -1.11785,1.46349 -1.17492,2.96851 0,4.56434 z" style="fill:none;stroke:#000000;stroke-width:0.26458332px;stroke-linecap:butt;stroke-linejoin:miter;stroke-opacity:1"/> <path style="fill:#000000;fill-opacity:1;stroke:#000000;stroke-width:0.26458332px;stroke-linecap:butt;stroke-linejoin:miter;stroke-opacity:1" d="m 146.55214,118.99033 c 0.72185,-1.84555 0.2772,-3.28452 -1.18134,-4.40882 v 0 c -0.70098,1.70295 -0.36658,3.17145 1.18134,4.40882 z" id="path6906"/> <path id="path6908" d="m 153.27516,119.19411 c 1.54791,-1.23737 1.88232,-2.70588 1.18134,-4.40882 v 0 c -1.45855,1.12431 -1.9032,2.56326 -1.18134,4.40882 z" style="fill:#000000;fill-opacity:1;stroke:#000000;stroke-width:0.26458332px;stroke-linecap:butt;stroke-linejoin:miter;stroke-opacity:1"/> </g> <path id="path6910" d="m 149.96397,101.07605 c 1.17492,-1.595829 1.11785,-3.100849 0,-4.564339 v 0 c -1.11785,1.46349 -1.17492,2.96851 0,4.564339 z" style="fill:#000000;fill-opacity:1;stroke:#000000;stroke-width:0.26458332px;stroke-linecap:butt;stroke-linejoin:miter;stroke-opacity:1"/> <g id="g6988"> <path id="path6912" d="m 140.54336,118.16263 c 0.53595,-1.90785 -0.0487,-3.29584 -1.61122,-4.27051 v 0 c -0.52927,1.76389 -0.0514,3.19215 1.61122,4.27051 z" style="fill:#000000;fill-opacity:1;stroke:#000000;stroke-width:0.26499999;stroke-linecap:butt;stroke-linejoin:miter;stroke-miterlimit:4;stroke-dasharray:none;stroke-opacity:1"/> <path style="fill:none;stroke:#000000;stroke-width:0.26458332px;stroke-linecap:butt;stroke-linejoin:miter;stroke-opacity:1" d="m 140.54336,118.16263 c 1.41807,-1.38427 1.60575,-2.87863 0.7399,-4.50398 v 0 c -1.34031,1.26294 -1.64059,2.73879 -0.7399,4.50398 z" id="path6914"/> <path id="path6916" d="m 140.54336,118.16263 c -0.48978,-1.92022 -1.69009,-2.82994 -3.53061,-2.89277 v 0 c 0.42358,1.79222 1.55156,2.79019 3.53061,2.89277 z" style="fill:none;stroke:#000000;stroke-width:0.26458332px;stroke-linecap:butt;stroke-linejoin:miter;stroke-opacity:1"/> <path style="fill:none;stroke:#000000;stroke-width:0.47069523px;stroke-linecap:butt;stroke-linejoin:miter;stroke-opacity:1" d="m 140.54336,118.16263 c 0.95345,-3.39407 -0.0866,-5.86332 -2.86637,-7.59726 v 0 c -0.94158,3.13797 -0.0914,5.67885 2.86637,7.59726 z" id="path6918"/> </g> <use x="0" y="0" xlink:href="#g6926" id="use6928" width="100%" height="100%"/> <use x="0" y="0" xlink:href="#g6926" transform="rotate(36,149.96334,146.99974)" id="use6930" width="100%" height="100%"/> <use x="0" y="0" xlink:href="#g6926" transform="rotate(72,149.96334,146.99974)" id="use6932" width="100%" height="100%"/> <use x="0" y="0" xlink:href="#g6926" transform="rotate(108,149.96334,146.99974)" id="use6934" width="100%" height="100%"/> <use x="0" y="0" xlink:href="#g6926" transform="rotate(144,149.96334,146.99974)" id="use6936" width="100%" height="100%"/> <use x="0" y="0" xlink:href="#g6926" transform="rotate(180,149.96334,146.99974)" id="use6938" width="100%" height="100%"/> <use x="0" y="0" xlink:href="#g6926" transform="rotate(-144,149.96334,146.99974)" id="use6940" width="100%" height="100%"/> <use x="0" y="0" xlink:href="#g6926" transform="rotate(-108,149.96334,146.99974)" id="use6942" width="100%" height="100%"/> <use x="0" y="0" xlink:href="#g6926" transform="rotate(-72,149.96334,146.99974)" id="use6944" width="100%" height="100%"/> <use x="0" y="0" xlink:href="#g6926" transform="rotate(-36,149.96334,146.99974)" id="use6946" width="100%" height="100%"/> <use x="0" y="0" xlink:href="#g6988" id="use6990" width="100%" height="100%"/> <use x="0" y="0" xlink:href="#g6988" transform="rotate(36,149.96523,147.00278)" id="use6992" width="100%" height="100%"/> <use x="0" y="0" xlink:href="#g6988" transform="rotate(72,149.96523,147.00278)" id="use6994" width="100%" height="100%"/> <use x="0" y="0" xlink:href="#g6988" transform="rotate(108,149.96523,147.00278)" id="use6996" width="100%" height="100%"/> <use x="0" y="0" xlink:href="#g6988" transform="rotate(144,149.96523,147.00278)" id="use6998" width="100%" height="100%"/> <use x="0" y="0" xlink:href="#g6988" transform="rotate(180,149.96523,147.00278)" id="use7000" width="100%" height="100%"/> <use x="0" y="0" xlink:href="#g6988" transform="rotate(-144,149.96523,147.00278)" id="use7002" width="100%" height="100%"/> <use x="0" y="0" xlink:href="#g6988" transform="rotate(-108,149.96523,147.00278)" id="use7004" width="100%" height="100%"/> <use x="0" y="0" xlink:href="#g6988" transform="rotate(-72,149.96523,147.00278)" id="use7006" width="100%" height="100%"/> <use x="0" y="0" xlink:href="#g6988" transform="rotate(-36,149.96523,147.00278)" id="use7008" width="100%" height="100%"/> <circle r="54.802017" cy="147" cx="150" id="circle7010" style="opacity:1;fill:none;fill-opacity:1;fill-rule:nonzero;stroke:#000000;stroke-width:1;stroke-linecap:butt;stroke-linejoin:round;stroke-miterlimit:4;stroke-dasharray:none;stroke-dashoffset:0;stroke-opacity:1"/> <circle style="opacity:1;fill:none;fill-opacity:1;fill-rule:nonzero;stroke:#000000;stroke-width:2.134516;stroke-linecap:butt;stroke-linejoin:round;stroke-miterlimit:4;stroke-dasharray:none;stroke-dashoffset:0;stroke-opacity:1" id="circle7040" cx="150" cy="147" r="103.89366"/> <use x="0" y="0" xlink:href="#path6910" id="use7042" width="100%" height="100%" transform="matrix(2.6369072,0,0,2.6369072,-245.4771,-154.53805)"/> <use x="0" y="0" xlink:href="#path6910" transform="rotate(36,149.96397,146.99524)" id="use7044" width="100%" height="100%"/> <use x="0" y="0" xlink:href="#path6910" transform="rotate(72,149.96397,146.99524)" id="use7046" width="100%" height="100%"/> <use x="0" y="0" xlink:href="#path6910" transform="rotate(108,149.96397,146.99524)" id="use7048" width="100%" height="100%"/> <use x="0" y="0" xlink:href="#path6910" transform="rotate(144,149.96397,146.99524)" id="use7050" width="100%" height="100%"/> <use x="0" y="0" xlink:href="#path6910" transform="rotate(180,149.96397,146.99524)" id="use7052" width="100%" height="100%"/> <use x="0" y="0" xlink:href="#path6910" transform="rotate(-144,149.96397,146.99524)" id="use7054" width="100%" height="100%"/> <use x="0" y="0" xlink:href="#path6910" transform="rotate(-108,149.96397,146.99524)" id="use7056" width="100%" height="100%"/> <use x="0" y="0" xlink:href="#path6910" transform="rotate(-72,149.96397,146.99524)" id="use7058" width="100%" height="100%"/> <use x="0" y="0" xlink:href="#path6910" transform="rotate(-36,149.96397,146.99524)" id="use7060" width="100%" height="100%"/> <path id="path7066" d="m 149.96397,92.190605 c 43.17914,-19.433484 0.0608,-53.826087 0,-72.802648 v 0 c -0.0547,18.975883 -41.66532,53.200961 0,72.802648 z" style="fill:none;stroke:#000000;stroke-width:1;stroke-linecap:butt;stroke-linejoin:miter;stroke-miterlimit:4;stroke-dasharray:none;stroke-opacity:1;opacity:0.97"/> <use x="0" y="0" xlink:href="#path7066" id="use7164" width="100%" height="100%" transform="matrix(0.6756063,0,0,0.6756063,48.647367,29.906051)"/> <use x="0" y="0" xlink:href="#path7066" transform="rotate(18,149.96463,147.00324)" id="use7166" width="100%" height="100%"/> <use x="0" y="0" xlink:href="#path7066" transform="rotate(36,149.96463,147.00324)" id="use7168" width="100%" height="100%"/> <use x="0" y="0" xlink:href="#path7066" transform="rotate(54,149.96463,147.00324)" id="use7170" width="100%" height="100%"/> <use x="0" y="0" xlink:href="#path7066" transform="rotate(72,149.96463,147.00324)" id="use7172" width="100%" height="100%"/> <use x="0" y="0" xlink:href="#path7066" transform="rotate(90,149.96463,147.00324)" id="use7174" width="100%" height="100%"/> <use x="0" y="0" xlink:href="#path7066" transform="rotate(108,149.96463,147.00324)" id="use7176" width="100%" height="100%"/> <use x="0" y="0" xlink:href="#path7066" transform="rotate(126,149.96463,147.00324)" id="use7178" width="100%" height="100%"/> <use x="0" y="0" xlink:href="#path7066" transform="rotate(144,149.96463,147.00324)" id="use7180" width="100%" height="100%"/> <use x="0" y="0" xlink:href="#path7066" transform="rotate(162,149.96463,147.00324)" id="use7182" width="100%" height="100%"/> <use x="0" y="0" xlink:href="#path7066" transform="rotate(180,149.96463,147.00324)" id="use7184" width="100%" height="100%"/> <use x="0" y="0" xlink:href="#path7066" transform="rotate(-162,149.96463,147.00324)" id="use7186" width="100%" height="100%"/> <use x="0" y="0" xlink:href="#path7066" transform="rotate(-144,149.96463,147.00324)" id="use7188" width="100%" height="100%"/> <use x="0" y="0" xlink:href="#path7066" transform="rotate(-126,149.96463,147.00324)" id="use7190" width="100%" height="100%"/> <use x="0" y="0" xlink:href="#path7066" transform="rotate(-108,149.96463,147.00324)" id="use7192" width="100%" height="100%"/> <use x="0" y="0" xlink:href="#path7066" transform="rotate(-90,149.96463,147.00324)" id="use7194" width="100%" height="100%"/> <use x="0" y="0" xlink:href="#path7066" transform="rotate(-72,149.96463,147.00324)" id="use7196" width="100%" height="100%"/> <use x="0" y="0" xlink:href="#path7066" transform="rotate(-54,149.96463,147.00324)" id="use7198" width="100%" height="100%"/> <use x="0" y="0" xlink:href="#path7066" transform="rotate(-36,149.96463,147.00324)" id="use7200" width="100%" height="100%"/> <use x="0" y="0" xlink:href="#path7066" transform="rotate(-18,149.96463,147.00324)" id="use7202" width="100%" height="100%"/> <use x="0" y="0" xlink:href="#use7164" id="use7284" width="100%" height="100%"/> <use x="0" y="0" xlink:href="#use7164" transform="rotate(9,149.9568,146.99781)" id="use7286" width="100%" height="100%"/> <use x="0" y="0" xlink:href="#use7164" transform="rotate(18,149.9568,146.99781)" id="use7288" width="100%" height="100%"/> <use x="0" y="0" xlink:href="#use7164" transform="rotate(27,149.9568,146.99781)" id="use7290" width="100%" height="100%"/> <use x="0" y="0" xlink:href="#use7164" transform="rotate(36,149.9568,146.99781)" id="use7292" width="100%" height="100%"/> <use x="0" y="0" xlink:href="#use7164" transform="rotate(45,149.9568,146.99781)" id="use7294" width="100%" height="100%"/> <use x="0" y="0" xlink:href="#use7164" transform="rotate(54,149.9568,146.99781)" id="use7296" width="100%" height="100%"/> <use x="0" y="0" xlink:href="#use7164" transform="rotate(63,149.9568,146.99781)" id="use7298" width="100%" height="100%"/> <use x="0" y="0" xlink:href="#use7164" transform="rotate(72,149.9568,146.99781)" id="use7300" width="100%" height="100%"/> <use x="0" y="0" xlink:href="#use7164" transform="rotate(81,149.9568,146.99781)" id="use7302" width="100%" height="100%"/> <use x="0" y="0" xlink:href="#use7164" transform="rotate(90,149.9568,146.99781)" id="use7304" width="100%" height="100%"/> <use x="0" y="0" xlink:href="#use7164" transform="rotate(99,149.9568,146.99781)" id="use7306" width="100%" height="100%"/> <use x="0" y="0" xlink:href="#use7164" transform="rotate(108,149.9568,146.99781)" id="use7308" width="100%" height="100%"/> <use x="0" y="0" xlink:href="#use7164" transform="rotate(117,149.9568,146.99781)" id="use7310" width="100%" height="100%"/> <use x="0" y="0" xlink:href="#use7164" transform="rotate(126,149.9568,146.99781)" id="use7312" width="100%" height="100%"/> <use x="0" y="0" xlink:href="#use7164" transform="rotate(135,149.9568,146.99781)" id="use7314" width="100%" height="100%"/> <use x="0" y="0" xlink:href="#use7164" transform="rotate(144,149.9568,146.99781)" id="use7316" width="100%" height="100%"/> <use x="0" y="0" xlink:href="#use7164" transform="rotate(153,149.9568,146.99781)" id="use7318" width="100%" height="100%"/> <use x="0" y="0" xlink:href="#use7164" transform="rotate(162,149.9568,146.99781)" id="use7320" width="100%" height="100%"/> <use x="0" y="0" xlink:href="#use7164" transform="rotate(171,149.9568,146.99781)" id="use7322" width="100%" height="100%"/> <use x="0" y="0" xlink:href="#use7164" transform="rotate(180,149.9568,146.99781)" id="use7324" width="100%" height="100%"/> <use x="0" y="0" xlink:href="#use7164" transform="rotate(-171,149.9568,146.99781)" id="use7326" width="100%" height="100%"/> <use x="0" y="0" xlink:href="#use7164" transform="rotate(-162,149.9568,146.99781)" id="use7328" width="100%" height="100%"/> <use x="0" y="0" xlink:href="#use7164" transform="rotate(-153,149.9568,146.99781)" id="use7330" width="100%" height="100%"/> <use x="0" y="0" xlink:href="#use7164" transform="rotate(-144,149.9568,146.99781)" id="use7332" width="100%" height="100%"/> <use x="0" y="0" xlink:href="#use7164" transform="rotate(-135,149.9568,146.99781)" id="use7334" width="100%" height="100%"/> <use x="0" y="0" xlink:href="#use7164" transform="rotate(-126,149.9568,146.99781)" id="use7336" width="100%" height="100%"/> <use x="0" y="0" xlink:href="#use7164" transform="rotate(-117,149.9568,146.99781)" id="use7338" width="100%" height="100%"/> <use x="0" y="0" xlink:href="#use7164" transform="rotate(-108,149.9568,146.99781)" id="use7340" width="100%" height="100%"/> <use x="0" y="0" xlink:href="#use7164" transform="rotate(-99,149.9568,146.99781)" id="use7342" width="100%" height="100%"/> <use x="0" y="0" xlink:href="#use7164" transform="rotate(-90,149.9568,146.99781)" id="use7344" width="100%" height="100%"/> <use x="0" y="0" xlink:href="#use7164" transform="rotate(-81,149.9568,146.99781)" id="use7346" width="100%" height="100%"/> <use x="0" y="0" xlink:href="#use7164" transform="rotate(-72,149.9568,146.99781)" id="use7348" width="100%" height="100%"/> <use x="0" y="0" xlink:href="#use7164" transform="rotate(-63,149.9568,146.99781)" id="use7350" width="100%" height="100%"/> <use x="0" y="0" xlink:href="#use7164" transform="rotate(-54,149.9568,146.99781)" id="use7352" width="100%" height="100%"/> <use x="0" y="0" xlink:href="#use7164" transform="rotate(-45,149.9568,146.99781)" id="use7354" width="100%" height="100%"/> <use x="0" y="0" xlink:href="#use7164" transform="rotate(-36,149.9568,146.99781)" id="use7356" width="100%" height="100%"/> <use x="0" y="0" xlink:href="#use7164" transform="rotate(-27,149.9568,146.99781)" id="use7358" width="100%" height="100%"/> <use x="0" y="0" xlink:href="#use7164" transform="rotate(-18,149.9568,146.99781)" id="use7360" width="100%" height="100%"/> <use x="0" y="0" xlink:href="#use7164" transform="rotate(-9,149.9568,146.99781)" id="use7362" width="100%" height="100%"/> <use transform="matrix(3.3354861,-0.98286743,0.98286743,3.3354861,-462.03499,-79.645238)" height="100%" width="100%" id="use7364" xlink:href="#path6910" y="0" x="0"/> <use x="0" y="0" xlink:href="#use7042" id="use7526" width="100%" height="100%"/> <use x="0" y="0" xlink:href="#use7042" transform="rotate(36,149.96354,146.99471)" id="use7528" width="100%" height="100%"/> <use x="0" y="0" xlink:href="#use7042" transform="rotate(72,149.96354,146.99471)" id="use7530" width="100%" height="100%"/> <use x="0" y="0" xlink:href="#use7042" transform="rotate(108,149.96354,146.99471)" id="use7532" width="100%" height="100%"/> <use x="0" y="0" xlink:href="#use7042" transform="rotate(144,149.96354,146.99471)" id="use7534" width="100%" height="100%"/> <use x="0" y="0" xlink:href="#use7042" transform="rotate(180,149.96354,146.99471)" id="use7536" width="100%" height="100%"/> <use x="0" y="0" xlink:href="#use7042" transform="rotate(-144,149.96354,146.99471)" id="use7538" width="100%" height="100%"/> <use x="0" y="0" xlink:href="#use7042" transform="rotate(-108,149.96354,146.99471)" id="use7540" width="100%" height="100%"/> <use x="0" y="0" xlink:href="#use7042" transform="rotate(-72,149.96354,146.99471)" id="use7542" width="100%" height="100%"/> <use x="0" y="0" xlink:href="#use7042" transform="rotate(-36,149.96354,146.99471)" id="use7544" width="100%" height="100%"/> <use x="0" y="0" xlink:href="#use7364" id="use7546" width="100%" height="100%"/> <use x="0" y="0" xlink:href="#use7364" transform="rotate(36,149.96382,146.99878)" id="use7548" width="100%" height="100%"/> <use x="0" y="0" xlink:href="#use7364" transform="rotate(72,149.96382,146.99878)" id="use7550" width="100%" height="100%"/> <use x="0" y="0" xlink:href="#use7364" transform="rotate(108,149.96382,146.99878)" id="use7552" width="100%" height="100%"/> <use x="0" y="0" xlink:href="#use7364" transform="rotate(144,149.96382,146.99878)" id="use7554" width="100%" height="100%"/> <use x="0" y="0" xlink:href="#use7364" transform="rotate(180,149.96382,146.99878)" id="use7556" width="100%" height="100%"/> <use x="0" y="0" xlink:href="#use7364" transform="rotate(-144,149.96382,146.99878)" id="use7558" width="100%" height="100%"/> <use x="0" y="0" xlink:href="#use7364" transform="rotate(-108,149.96382,146.99878)" id="use7560" width="100%" height="100%"/> <use x="0" y="0" xlink:href="#use7364" transform="rotate(-72,149.96382,146.99878)" id="use7562" width="100%" height="100%"/> <use x="0" y="0" xlink:href="#use7364" transform="rotate(-36,149.96382,146.99878)" id="use7564" width="100%" height="100%"/> </g> </svg>